<?xml version="1.0" encoding="UTF-8" standalone="no"?>
<svg
   width="590.04572"
   height="575.08899"
   version="1.1"
   id="svg18"
   sodipodi:docname="a-favicon-for-personal-portfolio--should-contain-i (1).svg"
   inkscape:export-filename="a-favicon-for-personal-portfolio--should-contain-i (1).svg"
   inkscape:export-xdpi="96"
   inkscape:export-ydpi="96"
   xmlns:inkscape="http://www.inkscape.org/namespaces/inkscape"
   xmlns:sodipodi="http://sodipodi.sourceforge.net/DTD/sodipodi-0.dtd"
   xmlns="http://www.w3.org/2000/svg"
   xmlns:svg="http://www.w3.org/2000/svg">
  <defs
     id="defs18" />
  <sodipodi:namedview
     id="namedview18"
     pagecolor="#505050"
     bordercolor="#eeeeee"
     borderopacity="1"
     inkscape:showpageshadow="0"
     inkscape:pageopacity="0"
     inkscape:pagecheckerboard="0"
     inkscape:deskcolor="#505050" />
  <path
     fill="#F7EFE0"
     d="m 348.441,0 c 9.41,8.097 17.793,17.833 26.517,26.689 q 25.941,25.811 51.117,52.368 l -0.063,389.433 c 16.053,-0.355 32.186,-0.018 48.248,-0.04 l 115.628,0.177 c -0.166,23.706 0.482,47.46 -0.069,71.156 q -36.331,-0.303 -72.663,-0.089 l -168.668,0.119 -0.036,-362.067 Q 347.552,88.874 348.441,0 Z"
     id="path17"
     style="fill:#ffffff;fill-opacity:1" />
  <path
     fill="#F7EFE0"
     d="m 0.541,52.881 c 5.44,4.114 10.214,10.613 14.942,15.655 14.652,15.76 29.20367,31.612 43.655,47.556 L 197.07,267.34 c 9.978,10.895 20.1,21.674 29.976,32.66 8.06,8.966 15.892,18.255 24.339,26.849 l -0.173,-10.041 c -0.642,-43 0.074,-86.09 0.225,-129.1 l -0.059,-39.194 c -0.015,-6.607 -0.23379,-28.31306 -0.23379,-28.31306 25.47893,1.05087 51.39103,0.85387 76.88479,0.88906 l -0.041,275.438 c -0.015,44.483 0.836,89.117 -0.217,133.584 -6.651,-8.576 -15.033,-16.492 -22.481,-24.407 -10.08733,-10.74933 -19.988,-21.66733 -29.702,-32.754 -6.484,-6.596 -12.352,-13.752 -18.686,-20.49 -27.257,-29.001 -53.79,-58.599 -80.755,-87.859 -5.747,-6.236 -11.732,-12.248 -17.47,-18.491 -7.95,-8.649 -15.657,-17.524 -23.77,-26.025 -19.708,-20.652 -39.889,-40.824 -59.119,-61.93 -0.542,22.284 0.215,44.762 0.17,67.07 l -0.035,130.652 c 0.29733,39.73867 -0.399,119.211 -0.399,119.211 L 0,486.236 c 0,0 0.462,-29.683 0.483,-42.729 l 0.03,-87.581 z"
     id="path18"
     style="fill:#ffffff;fill-opacity:1"
     sodipodi:nodetypes="ccccscccccccccccscccccccccc" />
</svg>
